<svg xmlns="http://www.w3.org/2000/svg" viewBox="0 0 4780.62 1889.65"><defs><style>.cls-1{fill:#ff6b35;}.cls-2{fill:#010101;}.cls-3{fill:#c5380a;}</style></defs><g id="Layer_2" data-name="Layer 2"><g id="Layer_1-2" data-name="Layer 1"><path class="cls-1" d="M635.37,64.77c-.18,5.75-5.34,7.18-8.85,9.81-27.19,20.36-54.64,40.36-81.68,60.9-14.32,10.86-27.72,22.92-42,33.8-12.78,9.72-16.66,21.82-12.43,37,.18.64.29,1.3.41,2,3,16.29,3,16.07,19.64,16.81,13.87.62,27.6,2,41.61.19,11.59-1.48,22.09-4.61,31.48-11.31,6-4.24,11.64-8.88,17.26-13.57,59.51-49.7,123-93.34,192.83-127.44,55.3-27,113.38-45.4,173.89-56.6,43.25-8,86.87-12,130.69-14.34,51.22-2.73,102.42-2.83,153.59,1.33,11.93,1,24,.68,35.94,1.15,1.76.07,4.22.66,5.07,1.89,2.23,3.23-1.25,4.79-3.06,6.15-13.32,10-26.85,19.67-40.23,29.57-30.51,22.56-60.89,45.25-89.56,70.23-13.57,11.81-20.15,25.93-21.33,43.32-.32,4.63-1,9.25-1.62,13.85-1.36,9.69-.29,11.4,8.5,10.4,27.12-3.11,54.08-7.27,80.82-12.91,10.33-2.18,17.68-8.51,25.41-15,53.36-44.69,110.44-83.59,175.46-109.53,33.43-13.33,68.13-21.67,103.9-26.6,41.86-5.78,83.81-5.14,125.58-2.56,40.38,2.5,80.56,8.71,120.26,16.85,34.47,7.08,68.68,15.44,103,23.32,5.17,1.19,10.26,2.78,15.34,4.35,2.48.77,3,4.6.84,6.3-2.6,2.07-5.38,3.92-8.07,5.88-32.82,23.94-65.76,47.72-98.4,71.91-11.76,8.71-22.75,18.46-34.21,27.59C1747.57,175.67,1744,184,1743,193.6a37.9,37.9,0,0,0-.12,4c.18,34.26-3.65,30.5,29,30.72,5.33,0,10.66-.16,16,0,17.84.64,34-4.34,49.26-13.46,22.34-13.33,43.51-28.32,64.55-43.53,22.12-16,44.1-32.16,68.36-44.94,37.74-19.86,77.53-31.26,120.45-30.14a200.11,200.11,0,0,1,75.52,16.51c74.37,32.54,149.47,63.44,222.38,99.24,44.87,22,88.43,46.35,128.84,76a250.52,250.52,0,0,1,36.81,33.65A100.75,100.75,0,0,1,2575,355.39c7.85,21.71,2.76,40.6-11.78,57.47-8.79,10.2-19.86,17.55-31.7,23.92-26,14-54,22.39-82.72,28.33-41.08,8.51-82.68,13.52-124.44,17.51-61.69,5.9-123.47,8.64-185.45,8.6-165.86-.11-331.72.39-497.57.65q-285.75.44-571.5.82-249.78,0-499.56-.89c-60.6-.17-121.22-.31-181.8-1.81q-71.83-1.78-143.31-10.52c-37.67-4.59-75.21-9.81-112.23-18.29a297.28,297.28,0,0,1-60.33-20.31,132.85,132.85,0,0,1-30.24-19.2C22.93,405.12,13,381.28,25.37,351.6a123.16,123.16,0,0,1,16-27.55,264,264,0,0,1,37.21-38.92c57-49.26,121.52-86.1,190.33-115.91,66.65-28.87,135.66-50.83,205.91-68.86,47.66-12.24,95.69-23.09,143.62-34.29,5.56-1.3,11.31-4.83,17.3-1Z"/><path class="cls-2" d="M1626.08,980.68a565.24,565.24,0,0,1-8.09,105,201.28,201.28,0,0,1-12.37,44.15c-23.48,56.13-51.48,109.68-91.36,156.19-60.09,70.08-133.53,119.41-223.75,141.84-40.18,10-81.2,14.19-122.54,11.54-103-6.62-193.38-44.48-270.93-112.54-43.48-38.17-79.1-82.75-105.27-134.45-20.51-40.52-34.88-83.1-41.08-128.37-4-29-7.54-58.1-7.1-87.34.54-35.24,4.08-70.24,15-104.11,8.65-26.82,19.36-52.41,40-72.57a32.44,32.44,0,0,0,9.79-21.26c2.87-33.25,18.73-61.1,39.58-85.54,44.92-52.66,100.44-90.57,165.7-114.38,28.26-10.32,56.91-18.77,86.61-23.2,34.27-5.11,68.66-7.65,103.44-4.42,34.62,3.22,68.58,9,101.78,19.42,92.55,29,167.57,82.55,226,159.85,32.27,42.72,58.31,89,80.23,137.69a113.75,113.75,0,0,1,9.77,36.46C1623.89,931.13,1627.47,957.6,1626.08,980.68Zm-573.82,137.48c7.71-.36,11.46-3.21,15.64-5,6.7-2.85,13.5-5.56,20.42-7.78,10.38-3.34,19.76-1.33,27.39,6.75,4.11,4.35,8.06,8.87,11.84,13.51,13.08,16.06,30.19,23.29,50.62,23.75,17.67.41,34.23-4.34,50.46-10.53,12-4.56,22.66-11,30.77-21.36,5.34-6.8,11.36-13.06,16.74-19.83,10.6-13.32,22.75-22.58,41.11-17.37a7.79,7.79,0,0,0,2,.22c9,.09,13.32-5.32,11-14.36a34.94,34.94,0,0,0-3.63-9.24c-4.3-7.24-5-14.91-4.21-23.1,1-10-.87-19.74-3.47-29.54-12.91-48.57-38.66-90.29-68.51-129.84-8.53-11.3-20-19.53-32.43-26.16-15.61-8.32-32.49-12.53-50-10.28a131.2,131.2,0,0,0-59,22.53c-26.88,18.66-46.81,43.2-62.93,71.22-3.33,5.79-6.19,12-6.71,18.65-1.08,13.92-1.74,27.88-2.21,41.84-.33,10.08,2,19.73,5.57,29.18,5.45,14.42,12.57,27.76,22.48,39.69,11.92,14.34,12,17.52,2.21,33.49C1062.87,1102,1058.07,1109.12,1052.26,1118.16Z"/><path class="cls-1" d="M1803.48,1748.91H1263.82c-69.76,6.18-139.67,2.15-209.51,2.86s-139.91.15-209.87.15-140,2.28-209.84-.57c-89.19-3.65-178.33-1.32-267.48-2.36-46.63-.54-93.28.36-139.9-.67-34.62-.76-69-4.65-102.13-15.92-43.61-14.82-69.71-44.32-78.48-89.79-3.57-18.5-4.24-37-4.13-55.63.21-33.59,20.31-42.58,42.41-46.24,10.45-1.73,21.22-2,31.85-2.07,42.64-.22,85.3-.81,127.92.06,114.57,2.33,229.15.42,343.72,1,7.87,0,16,1.62,23.48-2.73,1-.57,2.46-.34,3.7-.29,79.23,3.15,158.48,1,237.72,1.3,121.26.42,242.52.11,363.78.11,14.43,0,28.79-.05,43.25,1.38,13.85,1.38,28,.3,41.94.3H1694c52.63,0,105.25.27,157.87-.27,25.26-.25,50.49-2.38,75.75-3.15,33.73-1,52.26,3.2,77.13,20,10.08,6.81,20.74,11.27,31.77,15.88,27.6,11.54,56.94,16.09,85.7,23,3.17.76,6.67,0,10,.37,17,2,34.12,3.47,51,6.42a398.58,398.58,0,0,0,97.4,5.4c30.08-2.15,63.21-15.07,91.23-31.37,5.75-3.35,11.34-7,16.77-10.86,32.22-22.85,68.45-28.18,106.57-23.61,11.75,1.41,23.6,3.52,34.72,8.69s18.58,13.1,21.43,24.72c7.65,31.13,8.13,62.07-4.91,92.08-9.72,22.39-27.33,37.37-48.16,48.91-17.6,9.75-36.67,15.72-56.18,20-45.06,10-90.82,12.92-136.86,12.9q-191.88-.09-383.76,0Z"/><path class="cls-2" d="M2290.21,1084.8c-.06-.66.14-1.62-.22-2-16.21-14.48-17-13.45-7-35.56,13.88-31,26-62.66,38.39-94.26a107.13,107.13,0,0,0,4.15-11.21c12-45,29.2-88.23,43.47-132.45,4.08-12.64,7.51-25.54,10.38-38.52,4.87-22,7.77-56.1,5.53-81a58.13,58.13,0,0,1,5-28.77c6-13.85,13.7-27.08,21.77-39.88,3.75-6,9.14-11.16,16.63-13.7,6.17-2.1,11.79-5.77,17.68-8.71,1.74-.87,4-2.7,5.27-2.23,13.12,4.73,26.33-2.09,39.47.73,30.94,6.64,62.2,4.57,93.43,2.9,15.33-6.48,31.39-3,47.17-3.43,2,0,4.34.51,5.93-.33,15.73-8.36,32.71-2,48.92-4.35,1.91-.27,4.87-.39,5.78.71,7.09,8.63,18.24,7,27.12,11,23.78,10.94,40,28.23,47.53,53.31,5.91,19.71,11.2,39.6,17.08,59.32,3.74,12.52,9.41,24.21,15,36.07,10.32,21.88,17.5,45.23,27.48,67.28,7.33,16.19,14.51,32.33,20.48,49.07a38,38,0,0,1,2.59,15.25c-.34,7.3.36,14.64.24,21.95-.1,5.66,1.55,10.2,5.76,14.17,7.94,7.47,12.15,17.36,14.81,27.52,7.75,29.66,20,57.73,30,86.58,4.26,12.31,10.43,24.26,13.76,36.94,4.25,16.2,11.06,31.86,13.5,48.24a259.83,259.83,0,0,0,5.81,28.23c2.47,9.24,2.12,19.57,8.08,27.83-.51,12.53,3.45,24,7.76,35.54.83,2.23.27,5.32-.49,7.76-2.75,9,.75,17.24,3.88,24.81,6.19,15,8.52,22.23,8.65,34.77.14,13.39,3.6,26.43,8.49,38.57a51.37,51.37,0,0,1,4.06,16.39c.79,10.46,4,20.78,6.58,31.07,2.25,9,5.37,17.85,7.46,26.9,3.06,13.21-.7,19.81-13.38,24.82a61.58,61.58,0,0,1-19.44,4c-21.9,1.2-43.86,1.94-65.65,4.26-26.52,2.82-53.06,3.69-79.68,4.52-11.84.37-23.64,3.31-35.37,5.6a98.42,98.42,0,0,1-31.71,1.48c-7.33-.94-12.82-4.37-15.74-10.57-4.75-10-9.57-20.28-12.32-31s-4.23-21.57-8-32.08c-1.67-4.69.75-10.83-.92-15.53-1.5-4.19-2.83-8.27-4.09-12.55-3.74-12.74-.9-26.88-9.76-38.69-6.2-8.29-25.64-24.55-39.11-22.59-15,2.18-28.19-7.05-42.81-4.17-11.69-9.14-25.44-5.29-38.44-6-13.28-.75-26.59-1.21-39.9-1.62a32.14,32.14,0,0,0-9.9.9c-10.19,3-22.36,1.26-30.5,8.23-7.6,6.49-7.62,18-10.73,27.4-11.73,35.26-22.68,70.77-34.19,106.09-3.29,10.09-10.1,19.75-10.62,29.85-.69,13.44-7.06,23.71-12.23,34.94-12.07,26.21-32.63,42-59.68,51.1-12.89,4.32-25.29,10.2-38.46,13.9-2.51.7-5,2.38-7.43,2.29-24.93-.91-48.44,7.86-72.87,10.55-45.73,5-91.46,8.63-137.46,5.74-16.11-1-31.35-5.11-44.15-16.15-3.77-3.25-4.29-6.66-3.42-10.42a31.14,31.14,0,0,1,4.75-10.8c5.71-8.07,11-16.85,18.16-23.37,13.41-12.12,24.06-26.55,35.31-40.33,20.75-25.4,40.36-51.78,57.57-79.8,4.51-7.33,9.15-14.59,13.36-22.09,1.72-3.06,3.32-5.66,7.09-6.13a12.3,12.3,0,0,0,8.28-5c4.44-5.59,7.6-11.85,2.45-18.06-4.88-5.88-4.17-12.3-4.51-18.88s.78-10.89,8.15-13.72c11.72-4.49,17.43-14.24,15.91-26.94-2.32-19.29,3.66-36.58,10.88-53.95,8.14-19.6,16.1-39.38,19-60.66,1-7.24,2-14.51,2.3-21.79.69-18.77,8.51-31.81,27.67-36.42a15.85,15.85,0,0,0,3.67-1.45C2290,1086.15,2290,1085.33,2290.21,1084.8Zm249.45,27.06c5.7-4.49,10.81-7.73,15-11.92,8.14-8.23,17.47-10.93,28.91-9.53,16.41,2,33.05,1.63,49.39,5,7.37,1.5,10.17-1.94,7.84-8.82-7.43-22-14.85-43.94-22.82-65.71-5.7-15.57-12.24-30.84-18.55-46.19-.7-1.7-2.33-3-4.89-6.21-3.27,7.55-7.41,13.42-8,20.87-.8,10.63-4.85,20.22-9.46,29.55-6.07,12.26-9.53,25.6-15.37,37.82-6.13,12.85-8.19,27.63-18.93,38.53C2539.79,1098.23,2536.53,1104,2539.66,1111.86Z"/><path class="cls-2" d="M349.42,955.31c3.32-2.12,6.6-4.41,10.05-6.39a22.07,22.07,0,0,1,17.29-2.33c16.1,4.18,32.24,8.16,48.39,12.1,4.52,1.1,9.11,2,13.71,2.63a8.24,8.24,0,0,0,8.48-4c1.91-3,2.71-6.4.21-9.25-12-13.67-13-30.15-12.14-47,1-19.92,2.89-39.8,3.6-59.73,1.65-45.93,1.92-91.89.47-137.84-.66-20.74,1-41.12,7.91-60.9a86,86,0,0,1,12-22.84c10.47-14.19,24.88-23.07,42.22-23.26,41.26-.46,82.5-4,123.79-.93a124.45,124.45,0,0,1,40.52,9.71c23.91,10.41,38,28,38,55.56a579.24,579.24,0,0,1-4.26,69.74c-5.56,45.87-4.07,91.75-2,137.64,1.4,31.93,1.91,63.73.23,95.71s-.6,63.9-.4,95.86c.07,12,1.22,23.92,1.62,35.88.47,14-.47,15.22-15,21.41-5.31,2.25-6.33,5.43-1.91,8.38,16.27,10.87,17.28,26,11.56,42.32-6.7,19.16-8.82,38.88-8.93,58.91-.2,36.61-.37,73.22,2.52,109.78,1.26,15.87,2.3,31.73-2,47.6-5.52,20.36-19.08,31.6-38.71,35.71a141.6,141.6,0,0,1-31.67,3.48c-24-.46-48,1-71.85-.45-29.92-1.88-59.85-1.14-89.75-2.5-6.72-.3-13.18-1.11-19.35-4-9-4.26-12.16-9-10.82-18.88.8-5.88,2.6-11.63,3.92-17.44,5.55-24.34,5.05-49.06,2.64-73.54a586.19,586.19,0,0,1-2.71-73.75c.34-12.28-.62-13.69-12.33-16.46-7.73-1.82-15.4-3.83-23.51-4.2-23.24-1.07-46.33-3.3-69.23-8a188.11,188.11,0,0,0-43.68-3.61c-15.74.48-17.62,2-17.67,16.94a183.25,183.25,0,0,0,1.58,27.83c2.16,14.45,3,29-4.34,42.84-4.76,9-3.42,18,3.45,26a45.49,45.49,0,0,1,4.91,6.29c3.76,6.31,3.59,12.71-.56,18.76-1.87,2.72-4.37,5-6.48,7.56-2.9,3.52-3.29,7.38-.25,10.85,7.77,8.9,9.62,20.14,12.55,31a49.52,49.52,0,0,1,1.18,7.9c1.69,16.18-2,20.83-18.69,24.4a74.08,74.08,0,0,1-27.59,1c-20.47-3.2-41.17-2-61.78-.13-6.61.61-13.21,1.67-19.83,1.8Q90.73,1424.34,36.8,1425a86.33,86.33,0,0,1-17.89-1.45c-9.77-2-14.64-8.83-14-18.82a76.71,76.71,0,0,1,1.93-11.81c7.15-31.85,2.32-63.63-.49-95.43-9.17-16-5.63-33.52-5.94-50.48-.31-17.3.58-34.62.82-51.93.12-8,5.3-14.26,6-22.55,5-59.07,8.37-118.18,8.46-177.46,0-14.14.91-28,8.63-40.37,2.07-3.32,1.72-6.26-.61-9C13.62,933.45,12.14,919,13,904.13c1.1-17.93,2.51-35.84,3.82-53.76,2.56-35.17,5.44-70.32,5.71-105.6.15-20.65-.26-41.31.13-61.95C23.11,661,30,641.05,41.93,622.88S70.75,596.16,92.4,596c31.95-.28,63.91-1.09,95.86-1.43,16.67-.18,33.22,1.24,49.45,5.45,10.35,2.68,20.18,6.52,29.06,12.59,13.65,9.34,21,22.36,20.46,38.83-.77,21.93-1.19,44-4.27,65.7a790.27,790.27,0,0,0-7.75,121.38c.36,28,.52,55.94.79,83.91,0,4,.1,8,.26,12s2.5,6,6.16,6.54c10.52,1.43,21,3.33,31.61,3.89C333.31,945.82,333.33,945.47,349.42,955.31Z"/><path class="cls-2" d="M3295.67,1006.94c6.39-11.65,8.58-23.56,11.58-35.05,13.56-52,26.69-104.08,39.81-156.18,5.18-20.57,10-41.24,14.83-61.88a297.52,297.52,0,0,1,16-49.2c9.74-22.61,20.12-44.94,30.28-67.36,5.82-12.84,13.3-24.52,23.7-34.22A74,74,0,0,1,3474.37,583a124,124,0,0,1,45.56,2.94c24.53,6.18,48,15.52,71.78,24,12.49,4.43,24.76,9.48,37.09,14.38,13,5.18,25.35,11.74,36.19,20.76,26.75,22.28,34.92,47,24,80.27-24.49,74.37-45.88,149.66-68.7,224.53-1.35,4.45-2.73,8.91-4.33,13.28-35.42,96.7-62.88,196-94.58,293.86-11.57,35.75-27,69.43-49.79,99.45-26.44,34.79-59.48,60.55-101.66,73.66a223.69,223.69,0,0,1-72.7,9.93c-26.54-.7-53-2.49-79.33-7a258.7,258.7,0,0,1-62.63-18.67,126.82,126.82,0,0,1-22.19-13.29c-18.4-13.31-30.74-30.67-36.55-53.1-11.51-44.44-26.45-87.82-42.86-130.69-9.48-24.78-20.94-48.77-29.13-74.09-2.72-8.39-5.26-16.71-4.09-25.34,1.51-11.11-1.73-21-5.46-31-12.75-34.29-25.89-68.44-38-102.95-15-42.61-32.3-84.29-48.76-126.31a403.77,403.77,0,0,1-24-88.32c-1.57-10.53-3.65-21-6-31.39-2.84-12.45-3.47-25-3.34-37.7.26-26.64,12-47.23,32.89-63,12.33-9.35,26.31-15.71,41-20.08,34.31-10.25,68.88-19.59,103.87-27.35a139.6,139.6,0,0,1,47.68-1.77c23.32,2.9,40.77,15,51,36.74,5.43,11.54,8.29,23.82,11.16,36.08,3,12.94,5.32,26,11.84,37.9,3.84,7,4.82,15.14,6,23.09,2.41,16.45,5.57,32.8,7.71,49.29a51.35,51.35,0,0,0,7.16,20.45c13.79,22.86,24.6,47.26,33.82,72.16,7.11,19.19,10.89,39.6,16.89,59.24,8.15,26.66,17,53.1,25.62,79.6C3291.76,1003.56,3293.14,1004.33,3295.67,1006.94Z"/><path class="cls-2" d="M4082.55,983.59c1-37.43,3.2-71.23,13.12-104.1,7.19-23.84,16.88-46.34,33.91-64.86,7.64-8.31,10.9-17.22,11.35-28.64,1-24.57,11.93-46.06,24.94-66.26,14.89-23.12,34.3-42.45,54.6-60.76,39-35.18,83.82-60.66,132.86-79.23a439.59,439.59,0,0,1,170.19-28.27c16.6.49,33.24,1.06,49.7,3.94,5.18.91,10.56.74,15.85,1,2.65.12,5.84-1,7.88.17,9.65,5.29,19.33,7.73,30.47,5,3.07-.74,7.72,2.1,10.67,4.5,7.14,5.77,15.28,7.55,24.06,8.43,13.89,1.4,27.75,3.21,41.59,5,12.67,1.68,24.66,5.45,35.52,12.36,17,10.83,23.87,26.82,20.57,46.17-2.56,15-7.1,29.7-11.48,44.32-9.14,30.47-18.74,60.81-28.2,91.18-4.14,13.29-8.12,26.64-12.74,39.77-3.29,9.37-6.54,18.79-12.35,27.15-19.9,28.62-55.67,30.34-80.81,23.17-5.08-1.45-9.78-4.19-14.75-6.1-6.19-2.37-12.39-4.38-19.3-4.29-5.22.06-10.56-1.15-15.66-2.5a31.53,31.53,0,0,0-13.79-.55c-22.29,3.76-44.61,7.39-66.88,11.22a78.41,78.41,0,0,0-34.5,14.91c-3.18,2.42-6.35,4.87-9.7,7-31.48,20.25-45.08,51.27-52.14,86.27-4.54,22.52-4,45.1.42,67.47,7,35.23,25.29,62.25,57.89,79.14,40.21,20.85,82.36,33.21,128,32.75,14.08-.15,27.78-2.82,41.56-5a38.31,38.31,0,0,0,14.74-5.7c8.25-5.43,17.43-6.11,26.67-7.06,18.06-1.85,30.67,6.31,39.3,21.59a56.54,56.54,0,0,1,4.16,9c13,37.08,31.68,71.62,47.7,107.35,8.44,18.8,17.45,37.35,26,56.13,11.73,25.85,8.23,45.07-11.82,65.42-18.21,18.48-40.57,30-65.18,37a134.29,134.29,0,0,1-39.36,5c-18.63-.32-37.3-.18-55.91.61-13.9.6-27.8,2.14-41.6,4-23.87,3.22-47.53,2.21-71.52.28-79-6.35-149.7-34.26-213.61-80-79-56.59-136.21-129.9-167.91-222.36a392.19,392.19,0,0,1-20.71-99.37C4085,1017.34,4083.64,998.76,4082.55,983.59Z"/><path class="cls-2" d="M1915,1121.91c4.92,4.58,9.44,8.42,13.52,12.69,3.19,3.33,2.3,8-1.75,9.81a112.77,112.77,0,0,1-13,4.89c-19,6-38.13,11.68-57.15,17.67-7,2.18-14.23,3.91-19.67,9.29a4.89,4.89,0,0,0-1.43,3.51,4.12,4.12,0,0,0,3.69,3.91c13.36,1.51,26.65.28,39.78-1.85,24.3-4,48.42-9,72.75-12.77,19-3,38.25-4.84,57.41-7a32.83,32.83,0,0,1,9.92.65c27.52,5.55,55.36,7.77,83.37,8.21a48.1,48.1,0,0,1,19.37,4.11c16.06,7.25,25.32,19.11,24.85,37.29-.5,20-.33,40-2.13,59.86a425.82,425.82,0,0,0-2,51.82c1.07,33.5-15.2,55.12-44.2,69.34-20.57,10.08-42.5,14.91-64.83,18.49-29.71,4.76-59.65,5.12-89.62,4.54-5.31-.1-10.39-.25-15.52,2.29-15.69,7.74-32.46,6.43-48.94,3.95-12-1.81-23.67-1.24-35.68-.33-23.21,1.75-46.53,2.15-69.82,2.65-13.31.29-26.7.41-39.93-.72-28.78-2.46-51.92-21.31-58-47.09a151.84,151.84,0,0,1-4-29.63c-.62-18-2.41-35.81-3.76-53.71-3-39.82-2.89-79.75,1.46-119.64,2.95-27.1,4.68-54.4,5.44-81.65,1-36.58,5.64-73,3.94-109.71a37.61,37.61,0,0,1,6-22.87c3.29-5,4.14-9.47,0-14.5-8.54-10.39-9.73-22.68-9.84-35.69-.23-26.73,4-53.1,5.62-79.67,1.59-25.94,2.72-51.83,2.94-77.8s.11-52,1-77.91c.42-12.59,2.43-25.17,4.44-37.64.94-5.83,3.15-11.57,5.51-17,5.46-12.66,14.71-20,29.13-20.47,22.59-.65,45.17-2.06,67.76-2.57,31.94-.72,63.88-1.16,95.7-4.25,11.46-1.11,22.55.76,33.55,3.69,14.5,3.85,23.33,13.95,25,28,2.45,21,4.06,42.13,2.49,63.62-3.22,43.75-11.69,87-10.58,131.17.87,34.62.58,69.27.62,103.91,0,18-1,35.83-2.65,53.78-2,22.47-1,45.24-.93,67.88.06,12,1.17,23.92,1.6,35.88.24,6.66.07,13.33.08,20,0,8.76-2.27,15.74-12.43,17.52C1921,1118.38,1918.33,1120.36,1915,1121.91Z"/><path class="cls-2" d="M3755.43,1278.62c-.9-51.27-3.38-93.69-8.74-136-1.83-14.44-1-29.23-1.2-43.86,0-2.59.28-5.58,1.55-7.72,8.8-14.82,5.95-30.89,5.26-46.68-.53-11.94-1.75-23.86-2.53-35.79-2.47-37.8-4.63-75.63-7.38-113.41-2.45-33.79-5.33-67.56-8.39-101.3-2.48-27.45,2.28-54.43,4.91-81.52.83-8.56,2.13-17.13,2.48-25.75.58-14.14,4.31-27.59,9.71-40.44,10-23.71,28.63-38.11,52.82-44.87a138.87,138.87,0,0,1,35.38-5.39c39.28-.56,78.46,1.19,117.61,4.06A114.73,114.73,0,0,1,3997,610.84c25.39,11.8,37.57,32.59,39.73,59.88.26,3.31-.15,6.67.09,10a36.89,36.89,0,0,1-7.82,26c-8.49,11.3-8,11.63.38,22,1.67,2.05,3.38,4.07,4.94,6.2,2.61,3.57,3,7.44.49,11.13a75.71,75.71,0,0,1-8.42,11c-7,7.11-8.58,15.64-4.21,23.83,6.64,12.46,8.06,24.91,5.36,38.53-.85,4.3.57,9.2,1.56,13.69,9.48,43,13.76,86.34,11.19,130.56-1.62,27.83.42,55.86.64,83.81.4,48.59.61,97.19,1,145.79.1,12.61.18,25.17,1.58,37.82,1.22,11.06-1.36,22.48-1.47,33.75a295.05,295.05,0,0,1-4.89,51.54c-4.06,21.72-10.62,42.52-21.76,61.66-12.53,21.51-30.15,36.83-54.45,44-8.48,2.53-17.05,2.94-25.65,2.9-29.28-.16-58.59,0-87.83-1.39-15.81-.74-31.59-3.72-46.28-10.65-25.38-12-40.82-31-44.14-59.43a230.81,230.81,0,0,1-1.93-29.83C3755.38,1305.74,3755.38,1287.83,3755.43,1278.62Z"/><path class="cls-1" d="M3185,1674c0-42-.08-83.91,0-125.87.05-15.64,3.09-19.1,18.31-19.44,20-.44,40-.12,59.92-.05a37.6,37.6,0,0,1,7.94.71c6.74,1.51,12.08,4.36,14.76,11.71,6.13,16.83,13.18,33.33,19.49,50.09,10.05,26.7,19.79,53.51,29.74,80.25a22.05,22.05,0,0,0,3.07,5c1.08,1.48,6,.45,7-1.2,3-4.9,2.11-10.32,2.11-15.57q0-51.94-.1-103.89c0-4.66-.2-9.34.18-14,.63-7.84,4.61-12.5,12.6-12.78,15.28-.54,30.62-.57,45.91,0,8.5.34,13.27,5.74,14.13,14a116.4,116.4,0,0,1,.25,12q0,119.86,0,239.74a113.83,113.83,0,0,1-.25,12c-1,8.87-5,12.7-14.28,13.49-5.3.44-10.65.27-16,.26-17.32,0-34.63-.39-51.94-.08-11.15.21-17.44-5.78-20.78-15.26-5.5-15.65-10.33-31.54-15.5-47.31q-9.27-28.27-18.62-56.53l-10.57-32.11c-1-3.15-1.58-6.56-3.17-9.4-1.87-3.36-4.35-7.64-8.69-6.93-5.46.89-3.7,6.18-3.71,9.78-.1,44,0,87.9-.1,131.84a140.44,140.44,0,0,1-1,17.89c-.55,4.26-3.41,7.42-8,7.46-17.29.15-34.59.42-51.86-.14-7.45-.25-10.29-4.13-10.79-11.81-.31-4.64-.13-9.32-.14-14Z"/><path class="cls-1" d="M2935.73,1687.4c0-37.28.92-74.59-.35-111.82-.78-22.87,10.65-34.24,30.46-40.75a124.51,124.51,0,0,1,39.26-6.2q27,.07,53.91,0a131.71,131.71,0,0,1,39.23,6.38c21.7,6.74,31.61,19.94,31.87,42.63.28,24.63.08,49.26.08,73.89,0,49.26.07,98.52,0,147.78-.05,18.2-2.4,20.57-20.76,21-13.31.3-26.64.32-39.94-.07-14.2-.42-16.38-2.56-16.54-16.39-.27-22.63-.09-45.26-.11-67.9,0-4.65-.17-9.31-.1-14,.09-6.28-3.54-9.68-8.85-11.89-6.41-2.66-13-2.55-19.6-1.1-8.89,2-12.24,5.81-12.33,15.4-.21,23.29.06,46.59,0,69.89-.08,23.74-2.39,25.94-26.57,26.09-10,.06-20,.13-30-.05-18.34-.34-19.44-1.34-19.59-19.11-.18-20.64-.05-41.28-.05-61.91Zm117.55-69h.13c0-9.94.23-19.89-.07-29.82-.23-7.93-3.8-12.48-11.25-14.11a51.45,51.45,0,0,0-13.79-1c-12,.69-16.65,5.09-17,17.4-.51,17.88-.49,35.79-.11,53.67.32,14.48,5.16,19.06,19.29,19.08a54.15,54.15,0,0,0,13.66-1.94c5.65-1.48,9.07-5.37,9.12-11.5C3053.33,1639.59,3053.28,1629,3053.28,1618.39Z"/><path class="cls-1" d="M4184.66,1674.54v68c0,4,.08,8,0,12-.09,8.45,1.5,16.29,10.28,19.82,9.79,3.92,19.58,3.69,28.55-2.62,4.26-3,5-7.61,5-12.42,0-12-.12-24,.15-36,.21-9.29,2.42-12.38,11.28-13.25a273.62,273.62,0,0,1,51.83-.07c9.08.82,12.48,5.27,12.63,14.81.29,17.32.23,34.64.06,52-.17,16.21-7.81,27.76-22.45,34.77-8.5,4.07-17.57,6.15-26.7,7.92-5.23,1-8.95,3.19-8.66,8.92.9,17.42-8,32-13.76,47.38-2.52,6.72-8.24,10.52-15,12-12.49,2.68-25.18,2.37-37.72.5-7-1-10.07-5.09-10.23-12.56-.31-14,0-28-.28-42-.21-11.72-.6-11.72-11.76-14.31a179.14,179.14,0,0,1-23-6.43c-15.83-6-24.78-17.32-24.93-34.76,0-3.33-.07-6.66-.07-10V1582.3c0-2.66.08-5.33,0-8-.52-19.18,9.25-31.15,26.48-38a114.69,114.69,0,0,1,39-7.56c21.3-.62,42.63-.48,63.94,0a115.22,115.22,0,0,1,38.95,7.87c17.35,6.67,26.55,19.18,26.3,38.23-.2,16,.15,32-.13,48-.24,13.52-3.45,17.16-16.09,17.48q-23,.6-45.95-.11c-10.92-.34-13.52-3.47-13.79-15-.25-11.32.15-22.66-.16-34-.3-10.93-4.72-15.92-15.17-17.38a47.71,47.71,0,0,0-11.94-.07c-10.12,1.17-15.51,6.7-16.45,16.83-.43,4.62-.2,9.32-.2,14Q4184.64,1639.56,4184.66,1674.54Z"/><path class="cls-1" d="M3476.43,1673.92c0-42-.08-83.91.05-125.87.06-16.23,2.51-19.21,18.13-19.36,37.29-.37,74.58-.46,111.86.09,9.87.15,19.85,2.4,29.47,4.87a58.88,58.88,0,0,1,18,8.29c10.44,7.06,16.59,17.07,16.79,30.11,0,2.67,0,5.33,0,8,0,63.27-.75,126.55.37,189.79.44,24.73-14.36,41.52-35.28,46.26-7.13,1.62-14.07,3.79-21.53,3.8-40.62,0-81.23.3-121.85.42a48.1,48.1,0,0,1-7.94-.69c-4.42-.72-7.28-3.46-7.68-7.87-.48-5.29-.42-10.64-.43-16Q3476.39,1734.85,3476.43,1673.92Zm74.75.29h-.08q0,25.95,0,51.92c0,10,0,20,.08,29.95.11,16.19,6.4,21.27,24.49,20.61a27.07,27.07,0,0,0,7.76-1.78c6.16-2.14,10.22-6,10.11-13.11-.08-4.65.13-9.32.08-14q-.79-78.78-1.63-157.55a19.09,19.09,0,0,1,.06-2c.8-8.69-3.32-11.79-11-14.06a18.27,18.27,0,0,0-2-.42c-19.42-3.47-27.61,2.84-27.88,22.52C3550.91,1622.28,3551.18,1648.25,3551.18,1674.21Z"/><path class="cls-1" d="M2780.25,1819.82c-13.31,0-26.63-.06-39.94,0-10.87.06-20.93-3.25-31-6.88-16.27-5.88-24.67-18.12-26-34.58-1.16-14.56-.57-29.28-.19-43.92.18-7.44,5-12.22,12.16-13.7a30.43,30.43,0,0,1,6-.5c14,0,28-.34,42,.07,12.52.38,15.12,3.28,15.48,15.56.21,7.32-.2,14.67.17,22,.56,11.31,5.73,16.62,17,18.45a32.29,32.29,0,0,0,15.76-1.3c6.26-2.1,10.48-6.3,10.6-13,.32-16.64.28-33.3.12-49.94-.07-6.76-3.92-10.9-10.3-13.13-5.84-2-11.76-2-17.76-1.8a231.67,231.67,0,0,1-39.84-1.88,114.44,114.44,0,0,1-15.64-3c-21.15-6-36.54-16.4-36-47.75.36-21.31.06-42.63.06-63.94,0-2-.09-4,0-6,1.31-19.12,10.07-32.51,28.89-38.79a134,134,0,0,1,39.14-7c20-.5,40-.55,59.93,0,14,.37,27.85,2.39,41,7.71,17.14,7,26.78,18.69,25.59,38.3-.81,13.28.07,26.64-.32,40-.3,10.48-3,13.5-12.92,13.73-16.64.38-33.29.29-49.93-.11-7.5-.19-10.83-3.65-11.29-11.21-.56-9.3-.1-18.65-.55-28-.43-8.81-4.48-13.56-13.1-14.92a54,54,0,0,0-15.86-.16c-9,1.3-14.14,6.93-14.41,16.27q-.66,23,0,45.94c.27,8.47,4.82,13.78,13.21,15.23,7.8,1.35,15.88,1.42,23.84,1.46,15.33.06,30.68-.31,45.58,4.1a104,104,0,0,1,15,5.37c13.14,6.23,20.6,16.37,20.57,31.4-.07,28.64-.15,57.28,0,85.92.08,15.12-7.35,25.18-20.51,31.34-10.92,5.11-22.45,8.45-34.61,8.62C2808.22,1820,2794.23,1819.82,2780.25,1819.82Z"/><path class="cls-1" d="M3822.07,1820.22c-14,0-28,.4-42-.11-13.41-.5-16.58-4.44-19.06-18-3.47-18.93-7.13-37.85-11.72-56.52-3-12.29-3.64-24.9-7.05-37.2-4.77-17.23-7.08-35.14-10.6-52.73s-7.26-35.09-10.87-52.64c-3.47-16.91-7.48-33.72-10.22-50.75-3.39-21-1-23.43,19.61-23.64,11.32-.12,22.65-.27,34,.06,14.06.42,18.41,4.29,21.9,18.33a18.71,18.71,0,0,1,.93,3.88c.4,20.76,7.15,40.52,9.48,61,2.39,21.07,7.53,41.83,11.06,62.79,3.65,21.61,6.78,43.31,10.24,65,.29,1.81.72,3.78,3.19,4.44,3.5.93,5-1.51,6-3.74,4.1-9.21,5.39-19.1,6.92-29,3.77-24.27,8-48.47,12-72.71,3.54-21.62,7.54-43.19,10.21-64.92,1.38-11.32,4.48-22.14,6.71-33.2,1.56-7.71,6.92-11.46,14.19-11.62,16.63-.38,33.29-.53,49.92,0,8.63.3,11.93,6.34,10.15,15.35-6.18,31.26-12.21,62.54-18.39,93.8-4.76,24.11-9,48.39-14.3,72.3-3.88,17.42-6.29,35.25-11.76,52.46-4,12.54-4.14,26.18-7.69,39.08-4.53,16.48-5.57,17.92-22.95,18.29-13.31.29-26.63.06-39.94.06Z"/><path class="cls-2" d="M3886.37,352.9c27.82-3.15,49.46,9.62,68.36,29.09,26.08,26.88,40.2,78.35,15.52,120-5.17,8.72-11.26,16.45-19.52,22.31-34.58,24.52-72.66,31.73-113.37,20.48-27.3-7.54-48.42-24.84-62.79-49.13-9.85-16.65-9.75-35.49-7-54.21.39-2.59,1.76-5,2.14-7.64,4-27.2,20.68-45.45,42.59-59.64C3834.58,359.73,3859,352,3886.37,352.9Z"/><path class="cls-2" d="M4402.83,1714.5c-1.34-2.19-2.6-3.28-2.6-4.37,0-11.3-.63-22.69.58-33.87,4.11-37.87,12.84-74.5,31.3-108.3,17.23-31.53,39.69-58.11,71.26-76.2,16.5-9.46,34.13-14.45,53.25-14.23,36.91.42,56.33,25,64,50.45,11.81,39.12-9.28,71.2-36.66,86-17.09,9.26-35,12-53.92,9.76-8.75-1-16.4-5.39-23.69-10-6-3.8-11-2.79-16.5.91-20.7,13.88-37.53,31.81-52.91,51.07-9.11,11.4-17,23.8-25.34,35.78C4408.71,1705.7,4405.94,1709.91,4402.83,1714.5Z"/><path class="cls-1" d="M3978.62,1674.34V1556.73c0-3.33-.08-6.65,0-10,.49-17.11,4-20.63,21.48-20.84,11.29-.14,22.6-.31,33.88.09,12.4.45,18.14,6.28,18.83,18.33.23,4,.07,8,.07,12,0,79.08-.12,158.15.08,237.23.07,28.72-1.49,27-28,27-11.95,0-23.92,0-35.86-.53-6.6-.29-9.36-3.34-10-10.07-.5-5.28-.42-10.62-.42-15.93Q3978.6,1734.15,3978.62,1674.34Z"/><path class="cls-1" d="M4015.1,1505.37c-8,0-16,.45-23.94-.11-8.68-.62-12-4.13-12.44-12.53a181.87,181.87,0,0,1,0-20c.38-6.94,3.06-10.34,9.56-10.5q26.91-.63,53.84-.06c6.49.14,9.84,3.5,10.57,9.89a118,118,0,0,1,.55,19.89c-.46,8.24-4.18,12.41-12.25,13-8.59.67-17.27.15-25.91.15Z"/><path class="cls-3" d="M635.71,65c0-.49,0-1,0-1.47q2.12,0-.3,1.2Z"/></g></g></svg>